<svg width="521" height="471" viewBox="0 0 521 471" fill="none" xmlns="http://www.w3.org/2000/svg">
<ellipse cx="235.396" cy="218.91" rx="66.1506" ry="67.9412" fill="#F20F00" fill-opacity="0.49"/>
<g filter="url(#filter0_f_195_11)">
<ellipse cx="224.151" cy="218.91" rx="66.1506" ry="67.9412" fill="#F20F00" fill-opacity="0.49"/>
</g>
<ellipse cx="256.564" cy="206.171" rx="66.1506" ry="67.9412" fill="#EDF200" fill-opacity="0.99"/>
<g filter="url(#filter1_f_195_11)">
<ellipse cx="260.202" cy="198.941" rx="66.1506" ry="67.9412" fill="#EDF200" fill-opacity="0.47"/>
</g>
<ellipse cx="260.533" cy="225.107" rx="66.1506" ry="67.9412" fill="#0167FF" fill-opacity="0.76"/>
<g filter="url(#filter2_f_195_11)">
<ellipse cx="262.849" cy="234.059" rx="66.1506" ry="67.9412" fill="#0167FF" fill-opacity="0.6"/>
</g>
<g filter="url(#filter3_d_195_11)">
<ellipse cx="251.484" cy="216.728" rx="69.6235" ry="69.5467" fill="white"/>
</g>
<path d="M214.929 215.23H220.589V222.63C219.843 222.883 219.063 223.083 218.249 223.23C217.449 223.377 216.536 223.45 215.509 223.45C213.376 223.45 211.736 222.823 210.589 221.57C209.443 220.317 208.869 218.49 208.869 216.09C208.869 214.597 209.156 213.303 209.729 212.21C210.316 211.117 211.163 210.27 212.269 209.67C213.376 209.07 214.729 208.77 216.329 208.77C217.089 208.77 217.836 208.85 218.569 209.01C219.303 209.17 219.969 209.383 220.569 209.65L219.569 212.07C219.129 211.843 218.629 211.657 218.069 211.51C217.509 211.363 216.923 211.29 216.309 211.29C215.429 211.29 214.663 211.49 214.009 211.89C213.369 212.29 212.869 212.857 212.509 213.59C212.163 214.31 211.989 215.163 211.989 216.15C211.989 217.083 212.116 217.91 212.369 218.63C212.623 219.35 213.023 219.917 213.569 220.33C214.116 220.73 214.829 220.93 215.709 220.93C216.136 220.93 216.496 220.91 216.789 220.87C217.096 220.83 217.376 220.783 217.629 220.73V217.75H214.929V215.23ZM228.222 212.11C229.689 212.11 230.809 212.43 231.582 213.07C232.369 213.697 232.762 214.663 232.762 215.97V223.25H230.682L230.102 221.77H230.022C229.555 222.357 229.062 222.783 228.542 223.05C228.022 223.317 227.309 223.45 226.402 223.45C225.429 223.45 224.622 223.17 223.982 222.61C223.342 222.037 223.022 221.163 223.022 219.99C223.022 218.83 223.429 217.977 224.242 217.43C225.055 216.87 226.275 216.563 227.902 216.51L229.802 216.45V215.97C229.802 215.397 229.649 214.977 229.342 214.71C229.049 214.443 228.635 214.31 228.102 214.31C227.569 214.31 227.049 214.39 226.542 214.55C226.035 214.697 225.529 214.883 225.022 215.11L224.042 213.09C224.629 212.783 225.275 212.543 225.982 212.37C226.702 212.197 227.449 212.11 228.222 212.11ZM228.642 218.23C227.682 218.257 227.015 218.43 226.642 218.75C226.269 219.07 226.082 219.49 226.082 220.01C226.082 220.463 226.215 220.79 226.482 220.99C226.749 221.177 227.095 221.27 227.522 221.27C228.162 221.27 228.702 221.083 229.142 220.71C229.582 220.323 229.802 219.783 229.802 219.09V218.19L228.642 218.23ZM238.792 223.25H235.812V208.05H238.792V223.25ZM251.826 217.77C251.826 219.583 251.346 220.983 250.386 221.97C249.44 222.957 248.146 223.45 246.506 223.45C245.493 223.45 244.586 223.23 243.786 222.79C243 222.35 242.38 221.71 241.926 220.87C241.473 220.017 241.246 218.983 241.246 217.77C241.246 215.957 241.72 214.563 242.666 213.59C243.613 212.617 244.913 212.13 246.566 212.13C247.593 212.13 248.5 212.35 249.286 212.79C250.073 213.23 250.693 213.87 251.146 214.71C251.6 215.537 251.826 216.557 251.826 217.77ZM244.286 217.77C244.286 218.85 244.46 219.67 244.806 220.23C245.166 220.777 245.746 221.05 246.546 221.05C247.333 221.05 247.9 220.777 248.246 220.23C248.606 219.67 248.786 218.85 248.786 217.77C248.786 216.69 248.606 215.883 248.246 215.35C247.9 214.803 247.326 214.53 246.526 214.53C245.74 214.53 245.166 214.803 244.806 215.35C244.46 215.883 244.286 216.69 244.286 217.77ZM260.489 212.13C261.662 212.13 262.602 212.45 263.309 213.09C264.016 213.717 264.369 214.73 264.369 216.13V223.25H261.389V216.87C261.389 216.083 261.249 215.497 260.969 215.11C260.689 214.71 260.242 214.51 259.629 214.51C258.722 214.51 258.102 214.823 257.769 215.45C257.436 216.063 257.269 216.95 257.269 218.11V223.25H254.289V212.33H256.569L256.969 213.73H257.129C257.476 213.17 257.949 212.763 258.549 212.51C259.162 212.257 259.809 212.13 260.489 212.13ZM273.634 212.13C274.807 212.13 275.747 212.45 276.454 213.09C277.16 213.717 277.514 214.73 277.514 216.13V223.25H274.534V216.87C274.534 216.083 274.394 215.497 274.114 215.11C273.834 214.71 273.387 214.51 272.774 214.51C271.867 214.51 271.247 214.823 270.914 215.45C270.58 216.063 270.414 216.95 270.414 218.11V223.25H267.434V212.33H269.714L270.114 213.73H270.274C270.62 213.17 271.094 212.763 271.694 212.51C272.307 212.257 272.954 212.13 273.634 212.13ZM290.498 217.77C290.498 219.583 290.018 220.983 289.058 221.97C288.111 222.957 286.818 223.45 285.178 223.45C284.165 223.45 283.258 223.23 282.458 222.79C281.671 222.35 281.051 221.71 280.598 220.87C280.145 220.017 279.918 218.983 279.918 217.77C279.918 215.957 280.391 214.563 281.338 213.59C282.285 212.617 283.585 212.13 285.238 212.13C286.265 212.13 287.171 212.35 287.958 212.79C288.745 213.23 289.365 213.87 289.818 214.71C290.271 215.537 290.498 216.557 290.498 217.77ZM282.958 217.77C282.958 218.85 283.131 219.67 283.478 220.23C283.838 220.777 284.418 221.05 285.218 221.05C286.005 221.05 286.571 220.777 286.918 220.23C287.278 219.67 287.458 218.85 287.458 217.77C287.458 216.69 287.278 215.883 286.918 215.35C286.571 214.803 285.998 214.53 285.198 214.53C284.411 214.53 283.838 214.803 283.478 215.35C283.131 215.883 282.958 216.69 282.958 217.77Z" fill="#0A6AF9"/>
<defs>
<filter id="filter0_f_195_11" x="7" y="-0.0311279" width="434.301" height="437.882" filterUnits="userSpaceOnUse" color-interpolation-filters="sRGB">
<feFlood flood-opacity="0" result="BackgroundImageFix"/>
<feBlend mode="normal" in="SourceGraphic" in2="BackgroundImageFix" result="shape"/>
<feGaussianBlur stdDeviation="75.5" result="effect1_foregroundBlur_195_11"/>
</filter>
<filter id="filter1_f_195_11" x="0.0517578" y="-63" width="520.301" height="523.882" filterUnits="userSpaceOnUse" color-interpolation-filters="sRGB">
<feFlood flood-opacity="0" result="BackgroundImageFix"/>
<feBlend mode="normal" in="SourceGraphic" in2="BackgroundImageFix" result="shape"/>
<feGaussianBlur stdDeviation="97" result="effect1_foregroundBlur_195_11"/>
</filter>
<filter id="filter2_f_195_11" x="27.6987" y="-2.88239" width="470.301" height="473.882" filterUnits="userSpaceOnUse" color-interpolation-filters="sRGB">
<feFlood flood-opacity="0" result="BackgroundImageFix"/>
<feBlend mode="normal" in="SourceGraphic" in2="BackgroundImageFix" result="shape"/>
<feGaussianBlur stdDeviation="84.5" result="effect1_foregroundBlur_195_11"/>
</filter>
<filter id="filter3_d_195_11" x="177.86" y="143.182" width="151.247" height="151.093" filterUnits="userSpaceOnUse" color-interpolation-filters="sRGB">
<feFlood flood-opacity="0" result="BackgroundImageFix"/>
<feColorMatrix in="SourceAlpha" type="matrix" values="0 0 0 0 0 0 0 0 0 0 0 0 0 0 0 0 0 0 127 0" result="hardAlpha"/>
<feMorphology radius="1" operator="dilate" in="SourceAlpha" result="effect1_dropShadow_195_11"/>
<feOffset dx="2" dy="2"/>
<feGaussianBlur stdDeviation="2.5"/>
<feComposite in2="hardAlpha" operator="out"/>
<feColorMatrix type="matrix" values="0 0 0 0 0.416667 0 0 0 0 0.65 0 0 0 0 1 0 0 0 0.4 0"/>
<feBlend mode="normal" in2="BackgroundImageFix" result="effect1_dropShadow_195_11"/>
<feBlend mode="normal" in="SourceGraphic" in2="effect1_dropShadow_195_11" result="shape"/>
</filter>
</defs>
</svg>
